<svg width="78" height="79" viewBox="0 0 78 79" fill="none" xmlns="http://www.w3.org/2000/svg">
<g clip-path="url(#clip0_9_162)">
<path d="M72.5714 12.0374H5.78185C3.00309 12.0374 0.74231 14.3313 0.74231 17.1508V43.3216C0.74231 44.0316 1.30945 44.6073 2.00937 44.6073H76.3438C77.0438 44.6073 77.6109 44.0316 77.6109 43.3216V17.1508C77.6109 14.3313 75.3501 12.0374 72.5714 12.0374ZM6.23292 14.6087H72.1203V16.2389C72.1203 17.0886 71.439 17.7799 70.6015 17.7799H7.75171C6.91427 17.7799 6.23292 17.0886 6.23292 16.2389V14.6087ZM72.1203 35.6077H6.23292V35.4345C6.23292 34.5848 6.91427 33.8935 7.75171 33.8935H70.6015C71.439 33.8935 72.1203 34.5848 72.1203 35.4345V35.6077ZM6.23292 37.3219H72.1203V39.0361H6.23292V37.3219ZM6.23292 40.7503H72.1203V42.0359H6.23292V40.7503ZM75.0768 42.0359H73.8097V35.4345C73.8097 33.6396 72.3705 32.1793 70.6015 32.1793H7.75171C5.98255 32.1793 4.5435 33.6396 4.5435 35.4345V42.0359H3.27644V17.1508C3.27644 16.2063 3.78783 15.3819 4.5435 14.9438V16.2389C4.5435 18.0338 5.98272 19.4941 7.75171 19.4941H70.6015C72.3707 19.4941 73.8097 18.0338 73.8097 16.2389V14.9438C74.5654 15.3819 75.0768 16.2063 75.0768 17.1508V42.0359Z" fill="#F24841"/>
<path d="M43.0623 28.7509H35.2909C34.8243 28.7509 34.4462 29.1347 34.4462 29.608C34.4462 30.0812 34.8243 30.4651 35.2909 30.4651H43.0623C43.5289 30.4651 43.907 30.0812 43.907 29.608C43.907 29.1347 43.5289 28.7509 43.0623 28.7509Z" fill="#F24841"/>
<path d="M68.573 28.751C68.35 28.751 68.1321 28.8419 67.975 29.0013C67.8179 29.1607 67.7283 29.3819 67.7283 29.6081C67.7283 29.8344 67.8179 30.0555 67.975 30.2133C68.1321 30.3744 68.35 30.4652 68.573 30.4652C68.7944 30.4652 69.0123 30.3744 69.1694 30.2133C69.3265 30.0538 69.4178 29.8327 69.4178 29.6081C69.4178 29.3836 69.3265 29.1624 69.1694 29.0013C69.0123 28.8419 68.7944 28.751 68.573 28.751Z" fill="#F24841"/>
<path d="M64.6874 28.751C64.4644 28.751 64.2464 28.8419 64.0893 29.0013C63.9322 29.1607 63.8427 29.3819 63.8427 29.6081C63.8427 29.8344 63.9322 30.0538 64.0893 30.2133C64.2464 30.3727 64.4644 30.4652 64.6874 30.4652C64.9087 30.4652 65.1266 30.3727 65.2837 30.2133C65.4408 30.0538 65.5321 29.8327 65.5321 29.6081C65.5321 29.3819 65.4408 29.1607 65.2837 29.0013C65.1266 28.8419 64.9087 28.751 64.6874 28.751Z" fill="#F24841"/>
<path d="M32.2194 50.2255C32.4476 49.8126 32.3027 49.2903 31.8957 49.0587C31.4891 48.8269 30.974 48.9742 30.7457 49.387C29.21 52.1657 29.2099 55.6181 30.7456 58.397C31.995 60.6584 31.995 63.4681 30.7456 65.7297C30.5173 66.1426 30.6624 66.665 31.0692 66.8965C31.1998 66.9709 31.3416 67.0063 31.4815 67.0063C31.7771 67.0063 32.0641 66.8486 32.2191 66.5681C33.7544 63.7896 33.7544 60.3373 32.2191 57.5588C30.9694 55.2969 30.9696 52.4871 32.2194 50.2255Z" fill="#F24841"/>
<path d="M39.9135 50.2255C40.1418 49.8126 39.9968 49.2903 39.5899 49.0587C39.1832 48.8269 38.6681 48.9742 38.4399 49.387C36.9042 52.1657 36.904 55.6181 38.4397 58.397C39.6892 60.6584 39.6892 63.4681 38.4397 65.7297C38.2115 66.1426 38.3566 66.665 38.7634 66.8965C38.894 66.9709 39.0357 67.0063 39.1756 67.0063C39.4713 67.0063 39.7583 66.8486 39.9132 66.5681C41.4486 63.7896 41.4486 60.3373 39.9132 57.5588C38.6635 55.2969 38.6637 52.4871 39.9135 50.2255Z" fill="#F24841"/>
<path d="M47.6078 50.2255C47.8361 49.8126 47.6911 49.2903 47.2841 49.0587C46.8773 48.8269 46.3624 48.9742 46.1341 49.387C44.5983 52.1657 44.5983 55.6181 46.1338 58.397C47.3835 60.6586 47.3835 63.4681 46.1338 65.7297C45.9056 66.1425 46.0505 66.665 46.4575 66.8965C46.5881 66.9709 46.7298 67.0063 46.8697 67.0063C47.1654 67.0063 47.4524 66.8486 47.6073 66.5681C49.1428 63.7896 49.1428 60.3373 47.6073 57.5588C46.3578 55.297 46.3578 52.4871 47.6078 50.2255Z" fill="#F24841"/>
</g>
<defs>
<clipPath id="clip0_9_162">
<rect width="76.8686" height="77.9963" fill="white" transform="translate(0.74231 0.52356)"/>
</clipPath>
</defs>
</svg>
