<svg width="78" height="77" viewBox="0 0 78 77" fill="none" xmlns="http://www.w3.org/2000/svg">
<path d="M70.0495 45.7188V42.1094C70.0479 40.5144 69.4147 38.9852 68.2888 37.8574C67.1629 36.7296 65.6364 36.0953 64.0442 36.0938H43.6259C42.6931 36.0937 41.7732 36.3115 40.9392 36.73C40.1052 37.1485 39.3801 37.7561 38.8216 38.5045C38.2632 37.7561 37.5381 37.1485 36.7041 36.73C35.8701 36.3115 34.9501 36.0937 34.0174 36.0938H13.5991C12.0069 36.0953 10.4803 36.7296 9.35445 37.8574C8.22858 38.9852 7.59536 40.5144 7.59377 42.1094V45.7188C6.00154 45.7203 4.47497 46.3546 3.34909 47.4824C2.22322 48.6102 1.59 50.1394 1.58841 51.7344V73.3906C1.58841 73.7097 1.71495 74.0157 1.9402 74.2414C2.16544 74.467 2.47094 74.5938 2.78948 74.5938H74.8538C75.1723 74.5938 75.4778 74.467 75.7031 74.2414C75.9283 74.0157 76.0549 73.7097 76.0549 73.3906V51.7344C76.0533 50.1394 75.4201 48.6102 74.2942 47.4824C73.1683 46.3546 71.6417 45.7203 70.0495 45.7188ZM13.5991 72.1875H3.99055V51.7344C3.99182 50.7775 4.37186 49.8602 5.04731 49.1836C5.72277 48.507 6.63853 48.1263 7.59377 48.125H9.99591C10.9512 48.1263 11.8669 48.507 12.5424 49.1836C13.2178 49.8602 13.5979 50.7775 13.5991 51.7344V72.1875ZM9.99591 45.7188V42.1094C9.99718 41.1525 10.3772 40.2352 11.0527 39.5586C11.7281 38.882 12.6439 38.5013 13.5991 38.5H34.0174C34.9726 38.5013 35.8883 38.882 36.5638 39.5586C37.2393 40.2352 37.6193 41.1525 37.6206 42.1094V56.5499C36.5824 55.766 35.3174 55.3425 34.0174 55.3438H19.6045C18.3044 55.3425 17.0394 55.766 16.0013 56.5499V51.7344C15.9997 50.1394 15.3665 48.6102 14.2406 47.4824C13.1147 46.3546 11.5881 45.7203 9.99591 45.7188ZM37.6206 61.3594V64.9688H16.0013V61.3594C16.0025 60.4025 16.3826 59.4852 17.058 58.8086C17.7335 58.132 18.6492 57.7513 19.6045 57.75H34.0174C34.9726 57.7513 35.8883 58.132 36.5638 58.8086C37.2393 59.4852 37.6193 60.4025 37.6206 61.3594ZM61.642 72.1875H16.0013V67.375H61.642V72.1875ZM61.642 64.9688H40.0227V61.3594C40.024 60.4025 40.404 59.4852 41.0795 58.8086C41.7549 58.132 42.6707 57.7513 43.6259 57.75H58.0388C58.994 57.7513 59.9098 58.132 60.5852 58.8086C61.2607 59.4852 61.6407 60.4025 61.642 61.3594V64.9688ZM61.642 51.7344V56.5499C60.6039 55.766 59.3389 55.3425 58.0388 55.3438H43.6259C42.3259 55.3425 41.0609 55.766 40.0227 56.5499V42.1094C40.024 41.1525 40.404 40.2352 41.0795 39.5586C41.7549 38.882 42.6707 38.5013 43.6259 38.5H64.0442C64.9994 38.5013 65.9151 38.882 66.5906 39.5586C67.2661 40.2352 67.6461 41.1525 67.6474 42.1094V45.7188C66.0551 45.7203 64.5286 46.3546 63.4027 47.4824C62.2768 48.6102 61.6436 50.1394 61.642 51.7344ZM73.6527 72.1875H64.0442V51.7344C64.0454 50.7775 64.4255 49.8602 65.1009 49.1836C65.7764 48.507 66.6921 48.1263 67.6474 48.125H70.0495C71.0048 48.1263 71.9205 48.507 72.596 49.1836C73.2714 49.8602 73.6515 50.7775 73.6527 51.7344V72.1875Z" fill="#F24841"/>
<path d="M56.8377 2.40625H20.8056C20.487 2.40625 20.1815 2.53301 19.9563 2.75864C19.731 2.98427 19.6045 3.29029 19.6045 3.60938V30.0781C19.6045 30.3972 19.731 30.7032 19.9563 30.9289C20.1815 31.1545 20.487 31.2812 20.8056 31.2812H56.8377C57.1563 31.2812 57.4618 31.1545 57.687 30.9289C57.9123 30.7032 58.0388 30.3972 58.0388 30.0781V3.60938C58.0388 3.29029 57.9123 2.98427 57.687 2.75864C57.4618 2.53301 57.1563 2.40625 56.8377 2.40625ZM55.6367 28.875H22.0066V4.8125H55.6367V28.875Z" fill="#F24841"/>
<path d="M53.2345 6.01562H24.4088C24.0902 6.01562 23.7847 6.14238 23.5595 6.36801C23.3342 6.59364 23.2077 6.89966 23.2077 7.21875V26.4688C23.2077 26.7878 23.3342 27.0939 23.5595 27.3195C23.7847 27.5451 24.0902 27.6719 24.4088 27.6719H53.2345C53.553 27.6719 53.8585 27.5451 54.0838 27.3195C54.309 27.0939 54.4356 26.7878 54.4356 26.4688V7.21875C54.4356 6.89966 54.309 6.59364 54.0838 6.36801C53.8585 6.14238 53.553 6.01562 53.2345 6.01562ZM29.3752 25.2656L32.8163 21.1299L36.2573 25.2656H29.3752ZM39.3846 25.2656L36.8819 22.2578L41.7748 16.376L48.4302 25.2656H39.3846ZM52.0334 25.2656H51.4329L42.7852 13.7156C42.6764 13.5703 42.5362 13.4515 42.375 13.3681C42.2139 13.2848 42.036 13.2391 41.8547 13.2345C41.6734 13.2299 41.4934 13.2664 41.3283 13.3414C41.1631 13.4164 41.017 13.5279 40.901 13.6675L35.319 20.3779L33.7396 18.48C33.6268 18.3444 33.4856 18.2353 33.3261 18.1605C33.1665 18.0856 32.9925 18.0468 32.8163 18.0468C32.6401 18.0468 32.4661 18.0856 32.3065 18.1605C32.1469 18.2353 32.0058 18.3444 31.893 18.48L26.2479 25.2656H25.6098V8.42188H52.0334V25.2656Z" fill="#F24841"/>
<path d="M32.8163 16.8438C33.5289 16.8438 34.2256 16.6321 34.8181 16.2355C35.4107 15.8389 35.8725 15.2752 36.1452 14.6156C36.4179 13.9561 36.4893 13.2304 36.3503 12.5302C36.2112 11.8301 35.8681 11.1869 35.3641 10.6822C34.8602 10.1774 34.2182 9.83362 33.5192 9.69435C32.8203 9.55509 32.0958 9.62656 31.4374 9.89975C30.779 10.1729 30.2163 10.6356 29.8203 11.2291C29.4244 11.8227 29.2131 12.5205 29.2131 13.2344C29.2141 14.1913 29.5941 15.1087 30.2696 15.7854C30.9451 16.4621 31.861 16.8427 32.8163 16.8438ZM32.8163 12.0313C33.0538 12.0313 33.2861 12.1018 33.4836 12.234C33.6811 12.3662 33.835 12.5541 33.9259 12.774C34.0168 12.9938 34.0406 13.2357 33.9943 13.4691C33.9479 13.7025 33.8335 13.9169 33.6656 14.0851C33.4976 14.2534 33.2836 14.368 33.0506 14.4144C32.8176 14.4608 32.5761 14.437 32.3567 14.3459C32.1372 14.2549 31.9496 14.1007 31.8176 13.9028C31.6857 13.7049 31.6152 13.4723 31.6152 13.2344C31.6156 12.9154 31.7422 12.6096 31.9674 12.384C32.1926 12.1585 32.4979 12.0316 32.8163 12.0313Z" fill="#F24841"/>
</svg>
