<svg width="77" height="77" viewBox="0 0 77 77" fill="none" xmlns="http://www.w3.org/2000/svg">
<g clip-path="url(#clip0_11_939)">
<path d="M73.0682 44.9178H69.2246V32.0851C69.2205 28.5428 66.3552 25.6725 62.8189 25.6684H42.3216C38.7854 25.6725 35.92 28.5428 35.9159 32.0851V44.9178H32.0724C29.9512 44.9201 28.2318 46.6425 28.2294 48.7679V61.6006C28.2394 64.9778 30.8643 67.767 34.2293 67.9762L32.3873 74.4333H20.4133C19.8005 71.4485 17.1797 69.3044 14.1372 69.3002H11.5751V10.2174C11.5768 6.20344 14.6744 2.87322 18.6716 2.5889C22.6688 2.30457 26.2056 5.16249 26.7739 9.13596L26.7962 9.29164C25.143 9.97366 24.183 11.7125 24.4856 13.4772L24.8351 15.5491L21.4097 21.4417C20.9493 22.2342 20.9458 23.2123 21.3997 24.0083C21.8542 24.8043 22.6981 25.2971 23.6135 25.3013C23.7602 25.3013 23.9068 25.2889 24.051 25.2642L36.3417 23.1835C37.3216 23.0173 38.1174 22.2982 38.3837 21.3389C38.6493 20.3796 38.3373 19.3528 37.5826 18.7048L32.4143 14.2667L32.0648 12.1948C31.8167 10.7503 30.7693 9.57302 29.3654 9.16005L29.3102 8.77292C28.5531 3.46477 23.8288 -0.354201 18.4898 0.0258757C13.1508 0.405952 9.0129 4.85584 9.0129 10.2174V69.3002H6.45073V68.0173C6.45073 67.3082 5.87719 66.7337 5.16936 66.7337C4.46211 66.7337 3.88857 67.3082 3.88857 68.0173V69.8442C1.55746 70.8646 0.0497202 73.1686 0.0450287 75.7169C0.0450287 76.4254 0.618569 76.9999 1.3264 76.9999H75.6303C76.3376 76.9999 76.9111 76.4254 76.9111 75.7169C76.9111 75.0079 76.3376 74.4333 75.6303 74.4333H72.7533L70.9112 67.9762C74.2763 67.767 76.9012 64.9778 76.9111 61.6006V48.7679C76.9088 46.6425 75.1893 44.9201 73.0682 44.9178ZM35.9147 20.6528L23.6241 22.7341L26.9809 16.9595L30.8508 16.3045L35.9241 20.6505L35.9147 20.6528ZM29.7524 13.8872L27.226 14.3149L27.012 13.0495C26.8953 12.351 27.3644 11.6896 28.0617 11.5703C28.1327 11.5586 28.2042 11.5527 28.2763 11.5527C28.9009 11.5539 29.434 12.005 29.5395 12.6219L29.7524 13.8872ZM42.3216 28.235H62.8189C64.9407 28.2373 66.6601 29.9597 66.6625 32.0851V45.1545C65.1313 45.6944 64.105 47.1413 64.1003 48.7679V51.3673C62.9978 50.5185 61.6472 50.0556 60.2568 50.0509H55.6632L58.6007 47.1084C59.0856 46.6049 59.0792 45.8042 58.5848 45.3096C58.0905 44.8144 57.2917 44.8073 56.7891 45.2938L53.8517 48.2363V42.3512C53.8517 41.6422 53.2775 41.0677 52.5703 41.0677C51.863 41.0677 51.2889 41.6422 51.2889 42.3512V48.2363L48.3514 45.2938C47.8488 44.8073 47.0501 44.8144 46.5557 45.3096C46.0614 45.8042 46.0549 46.6049 46.5399 47.1084L49.4774 50.0509H44.8838C43.4933 50.0556 42.1428 50.5185 41.0402 51.3673V48.7679C41.0356 47.1413 40.0093 45.6944 38.4781 45.1545V32.0851C38.4804 29.9597 40.1999 28.2373 42.3216 28.235ZM60.2568 52.6174C62.3785 52.6198 64.098 54.3422 64.1003 56.4675V57.7505H41.0402V56.4675C41.0426 54.3422 42.762 52.6198 44.8838 52.6174H60.2568ZM62.0759 68.0173L65.7365 74.4333H39.4047L43.0646 68.0173H62.0759ZM64.1003 65.4501H41.0402V60.3171H64.1003V65.4501ZM30.7916 61.6006V48.7679C30.7922 48.0594 31.3657 47.4855 32.0724 47.4843H37.1973C37.904 47.4855 38.4775 48.0594 38.4781 48.7679V65.4501H34.6351C32.5134 65.4478 30.7939 63.726 30.7916 61.6006ZM2.82711 74.4333C3.37133 72.8966 4.82218 71.8686 6.45073 71.8668H14.1372C15.7652 71.8686 17.2166 72.8966 17.7609 74.4333H2.82711ZM35.0521 74.4333L36.8824 68.0173H40.1143L36.4543 74.4333H35.0521ZM68.6863 74.4333L65.0263 68.0173H68.2582L70.0885 74.4333H68.6863ZM74.349 61.6006C74.3466 63.726 72.6272 65.4478 70.5054 65.4501H66.6625V48.7679C66.6631 48.0594 67.2366 47.4855 67.9433 47.4843H73.0682C73.7748 47.4855 74.3478 48.0594 74.349 48.7679V61.6006Z" fill="#F24841"/>
</g>
<defs>
<clipPath id="clip0_11_939">
<rect width="76.8686" height="77" fill="white" transform="translate(0.0426025)"/>
</clipPath>
</defs>
</svg>
