<svg width="78" height="67" viewBox="0 0 78 67" fill="none" xmlns="http://www.w3.org/2000/svg">
<path d="M75.6128 0.160034H2.74059C1.63876 0.160034 0.74231 1.05802 0.74231 2.16173V48.2862C0.74231 49.3899 1.63876 50.2879 2.74059 50.2879H33.761C34.2902 51.318 34.6379 52.4307 34.7903 53.5759H23.6115C22.8994 53.5759 22.251 53.9384 21.8771 54.5456L17.9588 60.9097C17.7617 61.23 17.6557 61.6014 17.6557 61.981V64.7988C17.6557 65.9243 18.5697 66.8399 19.6933 66.8399H58.6601C59.7836 66.8399 60.6977 65.9243 60.6977 64.7988V61.981C60.6977 61.5997 60.5904 61.2272 60.3943 60.9094L56.4761 54.5458C56.1024 53.9385 55.4538 53.5759 54.7416 53.5759H43.5628C43.7152 52.4308 44.0629 51.3181 44.5921 50.2879H64.729C65.351 50.2879 65.855 49.7829 65.855 49.16C65.855 48.5371 65.351 48.0321 64.729 48.0321H2.99432V2.41589H75.3589V48.0321H69.9838C69.3618 48.0321 68.8578 48.5371 68.8578 49.16C68.8578 49.7829 69.3618 50.2879 69.9838 50.2879H75.6126C76.7145 50.2879 77.6109 49.3899 77.6109 48.2862V2.16158C77.6109 1.05787 76.7145 0.160034 75.6128 0.160034ZM57.5542 60.594H32.214C31.5921 60.594 31.088 61.0991 31.088 61.722C31.088 62.3449 31.5921 62.8499 32.214 62.8499H58.4457V64.5841H19.9075V62.8499H26.9592C27.581 62.8499 28.0852 62.3449 28.0852 61.722C28.0852 61.0991 27.581 60.594 26.9592 60.594H20.7989L23.731 55.8318H34.8786V57.3716C34.8786 58.1072 35.373 58.7575 36.0807 58.9531C38.1143 59.5151 40.2549 59.5106 42.2721 58.9531C42.98 58.7576 43.4743 58.1072 43.4743 57.3716V55.8318H54.6221L57.5542 60.594ZM42.1182 50.2879C41.5289 51.7515 41.2225 53.3209 41.2225 54.9097V56.8911C39.8752 57.1925 38.4776 57.1924 37.1307 56.8911V54.9097C37.1307 53.3209 36.8243 51.7514 36.2352 50.2879H42.1182Z" fill="#F24841"/>
<path d="M8.54028 6.17566C9.16213 6.17566 9.66628 5.67065 9.66628 5.04773C9.66628 4.42481 9.16213 3.9198 8.54028 3.9198H5.77721C5.07053 3.9198 4.49567 4.49565 4.49567 5.20353V45.2444C4.49567 45.9523 5.07053 46.5282 5.77721 46.5282H72.576C73.2827 46.5282 73.8576 45.9523 73.8576 45.2444V5.20353C73.8576 4.49565 73.2827 3.9198 72.576 3.9198H13.795C13.1731 3.9198 12.669 4.42481 12.669 5.04773C12.669 5.67065 13.1731 6.17566 13.795 6.17566H71.6056V44.2723H6.74768V6.17566H8.54028Z" fill="#F24841"/>
</svg>
