<svg width="78" height="77" viewBox="0 0 78 77" fill="none" xmlns="http://www.w3.org/2000/svg">
<g clip-path="url(#clip0_11_941)">
<path d="M75.6128 5.16003H2.74059C1.63876 5.16003 0.74231 6.05802 0.74231 7.16173V53.2862C0.74231 54.3899 1.63876 55.2879 2.74059 55.2879H33.761C34.2902 56.318 34.6379 57.4307 34.7903 58.5759H23.6115C22.8994 58.5759 22.251 58.9384 21.8771 59.5456L17.9588 65.9097C17.7617 66.23 17.6557 66.6014 17.6557 66.981V69.7988C17.6557 70.9243 18.5697 71.8399 19.6933 71.8399H58.6601C59.7836 71.8399 60.6977 70.9243 60.6977 69.7988V66.981C60.6977 66.5997 60.5904 66.2272 60.3943 65.9094L56.4761 59.5458C56.1024 58.9385 55.4538 58.5759 54.7416 58.5759H43.5628C43.7152 57.4308 44.0629 56.3181 44.5921 55.2879H64.729C65.351 55.2879 65.855 54.7829 65.855 54.16C65.855 53.5371 65.351 53.0321 64.729 53.0321H2.99432V7.41589H75.3589V53.0321H69.9838C69.3618 53.0321 68.8578 53.5371 68.8578 54.16C68.8578 54.7829 69.3618 55.2879 69.9838 55.2879H75.6126C76.7145 55.2879 77.6109 54.3899 77.6109 53.2862V7.16158C77.6109 6.05787 76.7145 5.16003 75.6128 5.16003ZM57.5542 65.594H32.214C31.5921 65.594 31.088 66.0991 31.088 66.722C31.088 67.3449 31.5921 67.8499 32.214 67.8499H58.4457V69.5841H19.9075V67.8499H26.9592C27.581 67.8499 28.0852 67.3449 28.0852 66.722C28.0852 66.0991 27.581 65.594 26.9592 65.594H20.7989L23.731 60.8318H34.8786V62.3716C34.8786 63.1072 35.373 63.7575 36.0807 63.9531C38.1143 64.5151 40.2549 64.5106 42.2721 63.9531C42.98 63.7576 43.4743 63.1072 43.4743 62.3716V60.8318H54.6221L57.5542 65.594ZM42.1182 55.2879C41.5289 56.7515 41.2225 58.3209 41.2225 59.9097V61.8911C39.8752 62.1925 38.4776 62.1924 37.1307 61.8911V59.9097C37.1307 58.3209 36.8243 56.7514 36.2352 55.2879H42.1182Z" fill="#F24841"/>
<path d="M8.54028 11.1757C9.16213 11.1757 9.66628 10.6706 9.66628 10.0477C9.66628 9.42481 9.16213 8.9198 8.54028 8.9198H5.77721C5.07053 8.9198 4.49567 9.49565 4.49567 10.2035V50.2444C4.49567 50.9523 5.07053 51.5282 5.77721 51.5282H72.576C73.2827 51.5282 73.8576 50.9523 73.8576 50.2444V10.2035C73.8576 9.49565 73.2827 8.9198 72.576 8.9198H13.795C13.1731 8.9198 12.669 9.42481 12.669 10.0477C12.669 10.6706 13.1731 11.1757 13.795 11.1757H71.6056V49.2723H6.74768V11.1757H8.54028Z" fill="#F24841"/>
</g>
<defs>
<clipPath id="clip0_11_941">
<rect width="76.8686" height="77" fill="white" transform="translate(0.74231)"/>
</clipPath>
</defs>
</svg>
