<svg width="78" height="77" viewBox="0 0 78 77" fill="none" xmlns="http://www.w3.org/2000/svg">
<g clip-path="url(#clip0_11_945)">
<path d="M69.2389 45.3041V16.0557C69.2389 13.6495 68.4602 11.3786 66.9872 9.48875C66.6047 8.99772 65.8968 8.91049 65.4069 9.29384C64.9166 9.67719 64.8295 10.386 65.2123 10.877C66.3732 12.3665 66.9869 14.1572 66.9869 16.0556V44.7708C66.6862 44.7402 66.3811 44.7245 66.0724 44.7245C65.5911 44.7245 65.1155 44.7645 64.6471 44.8397L65.348 41.4523C65.5811 40.326 65.2988 39.1685 64.5738 38.2762C64.2046 37.8219 63.7446 37.467 63.2307 37.2274C62.913 31.2161 60.4262 25.5851 56.1746 21.2961C55.9183 21.0377 55.5538 20.919 55.1949 20.9775C54.8361 21.0359 54.5277 21.2642 54.3663 21.5904C52.9545 24.4473 50.7831 26.8611 48.0873 28.5709C45.3194 30.3263 42.1154 31.2542 38.8216 31.2542C35.8853 31.2542 32.9828 30.5057 30.4287 29.0902C27.0942 27.2381 23.1263 27.2493 19.8142 29.1197C16.789 30.8281 14.8242 33.8138 14.4454 37.2125C13.918 37.4522 13.4458 37.8121 13.0685 38.2762C12.3435 39.1685 12.0613 40.3262 12.2943 41.4525L12.9953 44.8397C12.5264 44.7645 12.0506 44.7245 11.5695 44.7245C11.4518 44.7245 11.3349 44.7289 11.2183 44.7334V22.9947C11.2183 17.4558 13.3726 12.2475 17.2843 8.32908C21.1938 4.41276 26.3922 2.25586 31.9218 2.25586C39.018 2.25586 45.5421 5.83877 49.3735 11.8404C49.5807 12.1649 49.9386 12.3606 50.3219 12.3606C50.3295 12.3606 50.337 12.3606 50.3444 12.3605C50.7364 12.3526 51.0961 12.141 51.294 11.8021C52.7994 9.2227 55.5847 7.62044 58.5629 7.62044C59.801 7.62044 60.9909 7.88257 62.0993 8.39932C62.6633 8.66235 63.3329 8.41751 63.5954 7.8528C63.8578 7.28808 63.6134 6.61704 63.0496 6.35415C61.6414 5.6974 60.1318 5.36443 58.5629 5.36443C55.3628 5.36443 52.3382 6.82367 50.3292 9.25925C46.0009 3.43191 39.2357 0 31.9218 0C25.7907 0 20.0268 2.39151 15.6917 6.73404C11.3546 11.0784 8.96613 16.8532 8.96613 22.9947V45.1116C5.28305 46.2323 2.5943 49.6651 2.5943 53.7165C2.5943 58.6738 6.62044 62.7069 11.5693 62.7069C12.9947 62.7069 14.3684 62.3765 15.6133 61.7442C18.6815 70.6138 27.1053 77 36.9915 77H40.6533C50.5384 77 58.9613 70.6132 62.0289 61.7433C63.2751 62.3762 64.6489 62.7069 66.0726 62.7069C71.0224 62.7069 75.0491 58.6738 75.0491 53.7165C75.049 49.8746 72.6304 46.5894 69.2389 45.3041ZM20.92 31.0848C23.545 29.6023 26.6914 29.594 29.3374 31.0636C32.2252 32.6641 35.5047 33.5102 38.8215 33.5102C42.5425 33.5102 46.163 32.4614 49.2918 30.4771C51.8815 28.8347 54.0428 26.6166 55.6126 24.0043C58.7363 27.6144 60.5984 32.101 60.952 36.8729H16.7707C17.2179 34.4422 18.7103 32.3326 20.92 31.0848ZM11.5693 60.451C7.8622 60.451 4.84631 57.43 4.84631 53.7165C4.84631 50.0023 7.8622 46.9805 11.5693 46.9805C12.2282 46.9805 12.874 47.0757 13.4964 47.2624L14.3737 51.5014V51.7222C13.688 51.3599 12.8965 51.1297 12.0121 51.0406C10.5703 50.8955 9.36519 51.1862 9.31445 51.1985C8.71211 51.3467 8.34473 51.9544 8.49036 52.5584C8.63629 53.1623 9.24373 53.5343 9.84757 53.3902C9.85688 53.3879 10.7783 53.1727 11.8435 53.2909C12.9981 53.4191 13.8485 53.8832 14.3779 54.6694C14.4013 56.3375 14.6046 57.9627 14.9709 59.5258C13.9438 60.1325 12.7816 60.451 11.5693 60.451ZM40.6533 74.7441H36.9915C25.8238 74.7441 16.7281 65.6942 16.6281 54.5322C17.101 54.7429 17.6206 54.861 18.1618 54.861H20.3915C21.0135 54.861 21.5175 54.356 21.5175 53.7331C21.5175 53.1101 21.0135 52.6051 20.3915 52.6051H18.1618C17.4316 52.6051 16.7941 52.0852 16.6461 51.3686L14.4992 40.9948C14.4043 40.536 14.5194 40.0642 14.8151 39.7006C15.1104 39.3372 15.5477 39.1288 16.0149 39.1288H61.6273C62.0945 39.1288 62.5318 39.3372 62.8271 39.7006C63.1228 40.0644 63.2378 40.536 63.143 40.9948L60.996 51.3694C60.8482 52.0855 60.2108 52.6054 59.4802 52.6054H44.8301C44.0999 52.6054 43.4624 52.0855 43.3144 51.3689L41.72 43.6644C41.6116 43.1409 41.1513 42.7654 40.6174 42.7654H37.0262C36.4924 42.7654 36.0321 43.1408 35.9236 43.6641L34.3275 51.3694C34.1798 52.0855 33.5423 52.6054 32.8118 52.6054H24.8953C24.2733 52.6054 23.7693 53.1104 23.7693 53.7334C23.7693 54.3563 24.2733 54.8613 24.8953 54.8613H32.8118C34.6048 54.8613 36.1698 53.5848 36.5327 51.827L37.9424 45.0212H39.7008L41.1091 51.8263C41.4721 53.5849 43.0369 54.8613 44.83 54.8613H59.4801C60.0211 54.8613 60.5406 54.7434 61.0134 54.5327C60.9134 65.6942 51.8192 74.7441 40.6533 74.7441ZM66.0724 60.451C64.8621 60.451 63.7 60.1322 62.671 59.5249C63.037 57.9627 63.2402 56.3384 63.2637 54.6715C64.6124 52.6639 67.652 53.356 67.7955 53.3902C68.3985 53.5365 69.0064 53.1667 69.1544 52.5629C69.3026 51.9579 68.9331 51.3471 68.3293 51.1985C68.2785 51.1861 67.0735 50.8955 65.6316 51.0406C64.7463 51.1297 63.954 51.3604 63.2679 51.7232V51.5041L64.1456 47.263C64.7672 47.076 65.4128 46.9805 66.0724 46.9805C69.7803 46.9805 72.7969 50.0023 72.7969 53.7165C72.7969 57.43 69.7804 60.451 66.0724 60.451Z" fill="#F24841"/>
<path d="M33.3321 49.1026L34.4536 43.6838C34.6123 42.9171 34.4203 42.1292 33.9268 41.522C33.4335 40.9148 32.7023 40.5665 31.9207 40.5665H19.0538C18.2722 40.5665 17.541 40.9148 17.0477 41.522C16.5542 42.1292 16.3623 42.9171 16.5209 43.6838L17.6424 49.1024C17.8898 50.2992 18.955 51.1679 20.1753 51.1679H30.7994C32.0195 51.1679 33.0847 50.2992 33.3321 49.1026ZM19.8474 48.6448V48.6446L18.7259 43.2259C18.7115 42.966 18.7968 42.8609 19.0538 42.8224H31.9207C32.1776 42.861 32.263 42.966 32.2486 43.2259L31.1271 48.6448C31.095 48.7995 30.9572 48.9119 30.7992 48.9119H20.1751C20.0173 48.912 19.8795 48.7997 19.8474 48.6448Z" fill="#F24841"/>
<path d="M44.3101 49.1026C44.5578 50.2994 45.623 51.1679 46.843 51.1679H57.4672C58.6872 51.1679 59.7524 50.2994 60.0001 49.1026L61.1216 43.6838C61.2803 42.9173 61.0883 42.1292 60.5948 41.5221C60.1015 40.9148 59.3702 40.5665 58.5886 40.5665H45.7218C44.9402 40.5665 44.2089 40.9148 43.7154 41.5221C43.222 42.1294 43.0302 42.9173 43.1889 43.6838L44.3101 49.1026ZM45.462 42.9462C45.4996 42.9 45.5832 42.8224 45.7216 42.8224H58.5884C58.8453 42.861 58.9309 42.966 58.9165 43.2259L57.7949 48.6446C57.7628 48.7995 57.625 48.912 57.4671 48.912H46.8428C46.6849 48.912 46.5471 48.7995 46.5149 48.6446L45.3936 43.2257C45.3657 43.0901 45.4245 42.9923 45.462 42.9462Z" fill="#F24841"/>
<path d="M43.71 57.5515C43.1141 57.3742 42.487 57.7145 42.3102 58.3116C41.8562 59.843 40.4215 60.9126 38.8213 60.9126C37.223 60.9126 35.788 59.8425 35.3321 58.3104C35.1543 57.7135 34.5266 57.3734 33.9313 57.5518C33.3353 57.7298 32.9962 58.358 33.1739 58.9549C33.9124 61.4358 36.2347 63.1684 38.8213 63.1684C41.4109 63.1684 43.7333 61.4353 44.4689 58.9537C44.6459 58.3567 44.3062 57.7288 43.71 57.5515Z" fill="#F24841"/>
</g>
<defs>
<clipPath id="clip0_11_945">
<rect width="76.8686" height="77" fill="white" transform="translate(0.387329)"/>
</clipPath>
</defs>
</svg>
