<svg width="74" height="77" viewBox="0 0 74 77" fill="none" xmlns="http://www.w3.org/2000/svg">
<path d="M67.2389 45.3041V16.0557C67.2389 13.6495 66.4602 11.3786 64.9872 9.48875C64.6047 8.99772 63.8968 8.91049 63.4069 9.29384C62.9166 9.67719 62.8295 10.386 63.2123 10.877C64.3732 12.3665 64.9869 14.1572 64.9869 16.0556V44.7708C64.6862 44.7402 64.3811 44.7245 64.0724 44.7245C63.5911 44.7245 63.1155 44.7645 62.6471 44.8397L63.348 41.4523C63.5811 40.326 63.2988 39.1685 62.5738 38.2762C62.2046 37.8219 61.7446 37.467 61.2307 37.2274C60.913 31.2161 58.4262 25.5851 54.1746 21.2961C53.9183 21.0377 53.5538 20.919 53.1949 20.9775C52.8361 21.0359 52.5277 21.2642 52.3663 21.5904C50.9545 24.4473 48.7831 26.8611 46.0873 28.5709C43.3194 30.3263 40.1154 31.2542 36.8216 31.2542C33.8853 31.2542 30.9828 30.5057 28.4287 29.0902C25.0942 27.2381 21.1263 27.2493 17.8142 29.1197C14.789 30.8281 12.8242 33.8138 12.4454 37.2125C11.918 37.4522 11.4458 37.8121 11.0685 38.2762C10.3435 39.1685 10.0613 40.3262 10.2943 41.4525L10.9953 44.8397C10.5264 44.7645 10.0506 44.7245 9.56946 44.7245C9.45175 44.7245 9.33495 44.7289 9.21829 44.7334V22.9947C9.21829 17.4558 11.3726 12.2475 15.2843 8.32908C19.1938 4.41276 24.3922 2.25586 29.9218 2.25586C37.018 2.25586 43.5421 5.83877 47.3735 11.8404C47.5807 12.1649 47.9386 12.3606 48.3219 12.3606C48.3295 12.3606 48.337 12.3606 48.3444 12.3605C48.7364 12.3526 49.0961 12.141 49.294 11.8021C50.7994 9.2227 53.5847 7.62044 56.5629 7.62044C57.801 7.62044 58.9909 7.88257 60.0993 8.39932C60.6633 8.66235 61.3329 8.41751 61.5954 7.8528C61.8578 7.28808 61.6134 6.61704 61.0496 6.35415C59.6414 5.6974 58.1318 5.36443 56.5629 5.36443C53.3628 5.36443 50.3382 6.82367 48.3292 9.25925C44.0009 3.43191 37.2357 0 29.9218 0C23.7907 0 18.0268 2.39151 13.6917 6.73404C9.35462 11.0784 6.96613 16.8532 6.96613 22.9947V45.1116C3.28305 46.2323 0.594299 49.6651 0.594299 53.7165C0.594299 58.6738 4.62044 62.7069 9.56931 62.7069C10.9947 62.7069 12.3684 62.3765 13.6133 61.7442C16.6815 70.6138 25.1053 77 34.9915 77H38.6533C48.5384 77 56.9613 70.6132 60.0289 61.7433C61.2751 62.3762 62.6489 62.7069 64.0726 62.7069C69.0224 62.7069 73.0491 58.6738 73.0491 53.7165C73.049 49.8746 70.6304 46.5894 67.2389 45.3041ZM18.92 31.0848C21.545 29.6023 24.6914 29.594 27.3374 31.0636C30.2252 32.6641 33.5047 33.5102 36.8215 33.5102C40.5425 33.5102 44.163 32.4614 47.2918 30.4771C49.8815 28.8347 52.0428 26.6166 53.6126 24.0043C56.7363 27.6144 58.5984 32.101 58.952 36.8729H14.7707C15.2179 34.4422 16.7103 32.3326 18.92 31.0848ZM9.56931 60.451C5.8622 60.451 2.84631 57.43 2.84631 53.7165C2.84631 50.0023 5.8622 46.9805 9.56931 46.9805C10.2282 46.9805 10.874 47.0757 11.4964 47.2624L12.3737 51.5014V51.7222C11.688 51.3599 10.8965 51.1297 10.0121 51.0406C8.57032 50.8955 7.36519 51.1862 7.31445 51.1985C6.71211 51.3467 6.34473 51.9544 6.49036 52.5584C6.63629 53.1623 7.24373 53.5343 7.84757 53.3902C7.85688 53.3879 8.77825 53.1727 9.84345 53.2909C10.9981 53.4191 11.8485 53.8832 12.3779 54.6694C12.4013 56.3375 12.6046 57.9627 12.9709 59.5258C11.9438 60.1325 10.7816 60.451 9.56931 60.451ZM38.6533 74.7441H34.9915C23.8238 74.7441 14.7281 65.6942 14.6281 54.5322C15.101 54.7429 15.6206 54.861 16.1618 54.861H18.3915C19.0135 54.861 19.5175 54.356 19.5175 53.7331C19.5175 53.1101 19.0135 52.6051 18.3915 52.6051H16.1618C15.4316 52.6051 14.7941 52.0852 14.6461 51.3686L12.4992 40.9948C12.4043 40.536 12.5194 40.0642 12.8151 39.7006C13.1104 39.3372 13.5477 39.1288 14.0149 39.1288H59.6273C60.0945 39.1288 60.5318 39.3372 60.8271 39.7006C61.1228 40.0644 61.2378 40.536 61.143 40.9948L58.996 51.3694C58.8482 52.0855 58.2108 52.6054 57.4802 52.6054H42.8301C42.0999 52.6054 41.4624 52.0855 41.3144 51.3689L39.72 43.6644C39.6116 43.1409 39.1513 42.7654 38.6174 42.7654H35.0262C34.4924 42.7654 34.0321 43.1408 33.9236 43.6641L32.3275 51.3694C32.1798 52.0855 31.5423 52.6054 30.8118 52.6054H22.8953C22.2733 52.6054 21.7693 53.1104 21.7693 53.7334C21.7693 54.3563 22.2733 54.8613 22.8953 54.8613H30.8118C32.6048 54.8613 34.1698 53.5848 34.5327 51.827L35.9424 45.0212H37.7008L39.1091 51.8263C39.4721 53.5849 41.0369 54.8613 42.83 54.8613H57.4801C58.0211 54.8613 58.5406 54.7434 59.0134 54.5327C58.9134 65.6942 49.8192 74.7441 38.6533 74.7441ZM64.0724 60.451C62.8621 60.451 61.7 60.1322 60.671 59.5249C61.037 57.9627 61.2402 56.3384 61.2637 54.6715C62.6124 52.6639 65.652 53.356 65.7955 53.3902C66.3985 53.5365 67.0064 53.1667 67.1544 52.5629C67.3026 51.9579 66.9331 51.3471 66.3293 51.1985C66.2785 51.1861 65.0735 50.8955 63.6316 51.0406C62.7463 51.1297 61.954 51.3604 61.2679 51.7232V51.5041L62.1456 47.263C62.7672 47.076 63.4128 46.9805 64.0724 46.9805C67.7803 46.9805 70.7969 50.0023 70.7969 53.7165C70.7969 57.43 67.7804 60.451 64.0724 60.451Z" fill="#F24841"/>
<path d="M31.3321 49.1026L32.4536 43.6838C32.6123 42.9171 32.4203 42.1292 31.9268 41.522C31.4335 40.9148 30.7023 40.5665 29.9207 40.5665H17.0538C16.2722 40.5665 15.541 40.9148 15.0477 41.522C14.5542 42.1292 14.3623 42.9171 14.5209 43.6838L15.6424 49.1024C15.8898 50.2992 16.955 51.1679 18.1753 51.1679H28.7994C30.0195 51.1679 31.0847 50.2992 31.3321 49.1026ZM17.8474 48.6448V48.6446L16.7259 43.2259C16.7115 42.966 16.7968 42.8609 17.0538 42.8224H29.9207C30.1776 42.861 30.263 42.966 30.2486 43.2259L29.1271 48.6448C29.095 48.7995 28.9572 48.9119 28.7992 48.9119H18.1751C18.0173 48.912 17.8795 48.7997 17.8474 48.6448Z" fill="#F24841"/>
<path d="M42.3101 49.1026C42.5578 50.2994 43.623 51.1679 44.843 51.1679H55.4672C56.6872 51.1679 57.7524 50.2994 58.0001 49.1026L59.1216 43.6838C59.2803 42.9173 59.0883 42.1292 58.5948 41.5221C58.1015 40.9148 57.3702 40.5665 56.5886 40.5665H43.7218C42.9402 40.5665 42.2089 40.9148 41.7154 41.5221C41.222 42.1294 41.0302 42.9173 41.1889 43.6838L42.3101 49.1026ZM43.462 42.9462C43.4996 42.9 43.5832 42.8224 43.7216 42.8224H56.5884C56.8453 42.861 56.9309 42.966 56.9165 43.2259L55.7949 48.6446C55.7628 48.7995 55.625 48.912 55.4671 48.912H44.8428C44.6849 48.912 44.5471 48.7995 44.5149 48.6446L43.3936 43.2257C43.3657 43.0901 43.4245 42.9923 43.462 42.9462Z" fill="#F24841"/>
<path d="M41.71 57.5515C41.1141 57.3742 40.487 57.7145 40.3102 58.3116C39.8562 59.843 38.4215 60.9126 36.8213 60.9126C35.223 60.9126 33.788 59.8425 33.3321 58.3104C33.1543 57.7135 32.5266 57.3734 31.9313 57.5518C31.3353 57.7298 30.9962 58.358 31.1739 58.9549C31.9124 61.4358 34.2347 63.1684 36.8213 63.1684C39.4109 63.1684 41.7333 61.4353 42.4689 58.9537C42.6459 58.3567 42.3062 57.7288 41.71 57.5515Z" fill="#F24841"/>
</svg>
