<svg width="77" height="77" viewBox="0 0 77 77" fill="none" xmlns="http://www.w3.org/2000/svg">
<g clip-path="url(#clip0_11_951)">
<path d="M71.6833 19.3021C71.2962 18.6351 70.4423 18.4088 69.7765 18.7966L62.9656 22.7404C62.2997 23.1282 62.0738 23.9835 62.461 24.6505C62.8481 25.3176 63.702 25.5439 64.3678 25.1561L71.1787 21.2123C71.8446 20.8243 72.0705 19.9691 71.6833 19.3021Z" fill="#F24841"/>
<path d="M71.1787 55.7956L64.3678 51.8518C63.702 51.464 62.8481 51.6903 62.461 52.3573C62.0738 53.0244 62.2997 53.8797 62.9656 54.2675L69.7765 58.2113C70.4423 58.5991 71.2962 58.3728 71.6833 57.7058C72.0705 57.0386 71.8446 56.1834 71.1787 55.7956Z" fill="#F24841"/>
<path d="M38.6035 66.1066C37.8311 66.0491 37.1587 66.6296 37.1013 67.4033C37.0961 67.4726 37.0961 67.5421 37.1013 67.6113V75.4912C37.0439 76.2649 37.6235 76.9385 38.3958 76.996C39.1682 77.0534 39.8407 76.4729 39.8981 75.6992C39.9033 75.6299 39.9033 75.5604 39.8981 75.4912V67.6113C39.9553 66.8378 39.3757 66.1641 38.6035 66.1066Z" fill="#F24841"/>
<path d="M14.026 22.7404L7.21512 18.7966C6.54925 18.4088 5.69539 18.6351 5.30823 19.3021C4.92107 19.9691 5.14701 20.8245 5.81288 21.2123L12.6237 25.1561C13.2896 25.5439 14.1435 25.3176 14.5306 24.6505C14.9178 23.9833 14.6919 23.1282 14.026 22.7404Z" fill="#F24841"/>
<path d="M38.6035 0.00386655C37.8311 -0.0536308 37.1587 0.526938 37.1013 1.30064C37.0961 1.36991 37.0961 1.43937 37.1013 1.50864V9.38848C37.1055 10.1581 37.7275 10.7812 38.4958 10.7854C39.2703 10.7854 39.898 10.1566 39.898 9.38076V1.50883C39.9552 0.735125 39.3757 0.0613639 38.6035 0.00386655Z" fill="#F24841"/>
<path d="M25.1668 12.5838L21.2375 5.7613C20.8503 5.0943 19.9965 4.86797 19.3306 5.25579C18.6647 5.64361 18.4388 6.49893 18.826 7.16594L22.7553 13.9884C23.1425 14.6555 23.9963 14.8818 24.6622 14.494C25.3281 14.1059 25.554 13.2508 25.1668 12.5838Z" fill="#F24841"/>
<path d="M38.7034 26.0359C38.6343 26.0307 38.565 26.0307 38.4958 26.0359C31.6237 26.0359 26.0529 31.6162 26.0529 38.5001C26.0529 39.2759 26.6806 39.9047 27.4551 39.9047C28.2265 39.9005 28.8496 39.2728 28.8496 38.5001C28.8454 33.1679 33.1573 28.8417 38.4804 28.8374C38.4856 28.8374 38.4906 28.8374 38.4958 28.8374C39.2682 28.8949 39.9406 28.3144 39.998 27.5407C40.0554 26.767 39.4758 26.0932 38.7034 26.0359Z" fill="#F24841"/>
<path d="M76.7183 38.392C76.6669 37.6984 76.1164 37.1468 75.4238 37.0953H67.5574C66.785 37.0378 66.1126 37.6183 66.0552 38.392C65.9978 39.1658 66.5773 39.8393 67.3497 39.8968C67.4189 39.902 67.4884 39.902 67.5576 39.8968H75.424C76.1961 39.8395 76.7757 39.1658 76.7183 38.392Z" fill="#F24841"/>
<path d="M9.64169 37.1032C9.57254 37.098 9.5032 37.098 9.43405 37.1032H1.56765C0.795265 37.1607 0.215687 37.8344 0.273086 38.608C0.324514 39.3016 0.875008 39.8532 1.56765 39.9047H9.43405C10.2064 39.9622 10.8789 39.3817 10.9363 38.608C10.9937 37.8342 10.4141 37.1605 9.64169 37.1032Z" fill="#F24841"/>
<path d="M38.5014 17.8859C27.1359 17.8844 17.9212 27.1123 17.9195 38.4972C17.9187 43.9666 20.088 49.2122 23.9493 53.079C27.8034 56.9492 33.0384 59.1212 38.4956 59.1143C49.8611 59.1158 59.076 49.8879 59.0775 38.503C59.079 27.1181 49.8668 17.8875 38.5014 17.8859ZM51.0695 51.1186C44.1252 58.0749 32.8661 58.0749 25.9217 51.1186C22.5812 47.7724 20.7072 43.2322 20.7134 38.5001C20.7067 33.7745 22.5812 29.2413 25.9217 25.9047V25.9278C32.8661 18.9716 44.1252 18.9716 51.0695 25.9278C58.0141 32.8841 58.0141 44.1624 51.0695 51.1186Z" fill="#F24841"/>
<path d="M58.1691 69.8404C58.168 69.8383 58.1668 69.8362 58.1654 69.8342L54.2284 63.0117C53.8412 62.3447 52.9874 62.1184 52.3215 62.5062C51.6556 62.894 51.4297 63.7494 51.8169 64.4164L55.7539 71.2389C56.1395 71.9051 56.9909 72.133 57.6569 71.7482C58.3244 71.3629 58.5538 70.5088 58.1691 69.8404Z" fill="#F24841"/>
<path d="M57.7072 5.25579C57.0413 4.86797 56.1875 5.0943 55.8003 5.7613L51.8633 12.5838C51.4734 13.2493 51.6961 14.1052 52.3602 14.4955C52.3616 14.4963 52.3627 14.497 52.3641 14.4978C53.0294 14.8864 53.8832 14.6612 54.2712 13.9946C54.2723 13.9925 54.2737 13.9904 54.2748 13.9884L58.2119 7.16594C58.599 6.49874 58.3731 5.64361 57.7072 5.25579Z" fill="#F24841"/>
<path d="M24.6699 62.5062C24.004 62.1184 23.1502 62.3447 22.763 63.0117L18.826 69.8342C18.4388 70.5012 18.6647 71.3566 19.3306 71.7444C19.9965 72.1322 20.8503 71.9059 21.2375 71.2389L25.1745 64.4164C25.5617 63.7492 25.3358 62.894 24.6699 62.5062Z" fill="#F24841"/>
<path d="M14.5306 52.3497C14.1435 51.6826 13.2896 51.4563 12.6237 51.8441L5.81288 55.7879C5.14701 56.1757 4.92107 57.0311 5.30823 57.6981C5.69539 58.3651 6.54925 58.5914 7.21512 58.2036L14.026 54.2598C14.6919 53.8718 14.9178 53.0167 14.5306 52.3497Z" fill="#F24841"/>
</g>
<defs>
<clipPath id="clip0_11_951">
<rect width="76.8686" height="77" fill="white" transform="translate(0.0614014)"/>
</clipPath>
</defs>
</svg>
